<?xml version="1.0" standalone="no"?>
<!DOCTYPE svg PUBLIC "-//W3C//DTD SVG 20010904//EN"
 "http://www.w3.org/TR/2001/REC-SVG-20010904/DTD/svg10.dtd">
<svg version="1.0" xmlns="http://www.w3.org/2000/svg"
 width="700.000000pt" height="700.000000pt" viewBox="0 0 700.000000 700.000000"
 preserveAspectRatio="xMidYMid meet">
<metadata>
Created by potrace 1.14, written by Peter Selinger 2001-2017
</metadata>
<g transform="translate(0.000000,700.000000) scale(0.100000,-0.100000)"
fill="#000000" stroke="none">
<path d="M2083 6498 c-1 -7 -4 -51 -7 -98 -9 -118 -14 -190 -21 -295 -4 -49
-8 -112 -11 -140 -2 -27 -6 -90 -9 -140 -3 -49 -7 -112 -10 -140 -4 -49 -11
-144 -20 -275 -11 -170 -17 -236 -23 -241 -6 -6 -329 -189 -522 -296 -25 -14
-58 -33 -75 -43 -16 -10 -50 -29 -75 -42 -25 -14 -99 -56 -165 -93 -66 -38
-138 -79 -160 -91 -133 -73 -206 -117 -201 -122 4 -3 210 -83 459 -178 l452
-173 0 -87 1 -86 -36 -27 c-19 -14 -40 -30 -46 -36 -6 -5 -83 -63 -170 -127
-290 -212 -459 -337 -479 -354 -51 -41 -47 -42 -305 87 -216 108 -251 122
-298 123 l-53 1 -67 -120 c-37 -66 -67 -126 -67 -133 0 -43 78 -88 677 -388
335 -167 614 -304 621 -304 11 0 11 -11 2 -57 -17 -83 -8 -175 40 -413 2 -14
7 -41 10 -60 3 -19 10 -60 15 -90 5 -30 12 -72 16 -94 3 -21 8 -48 10 -60 7
-31 73 -415 80 -456 2 -19 9 -55 14 -80 5 -25 18 -99 30 -165 11 -66 22 -130
24 -141 3 -12 7 -37 10 -55 3 -19 8 -45 10 -59 3 -14 10 -54 16 -90 5 -36 12
-77 15 -93 3 -15 9 -53 15 -85 10 -54 13 -75 25 -132 2 -14 7 -45 10 -70 22
-160 114 -287 260 -356 119 -57 193 -59 465 -14 30 5 71 12 90 15 19 3 46 8
60 10 14 3 43 7 65 10 22 3 49 7 60 9 11 2 45 7 75 11 30 4 64 9 75 11 22 5
456 74 655 105 69 10 150 23 180 29 30 5 75 12 100 15 25 3 68 10 95 15 28 5
68 12 90 15 22 3 51 7 65 10 14 2 43 7 65 10 116 17 362 56 375 60 8 2 38 7
65 10 28 4 88 13 135 20 47 8 103 17 125 20 22 4 54 9 70 12 17 2 39 6 50 8
63 9 116 17 165 25 30 5 73 12 95 15 22 3 51 8 65 10 14 3 43 7 65 11 67 9
304 47 370 59 168 31 330 186 360 346 12 63 7 163 -10 229 -2 8 -6 31 -9 50
-5 31 -24 141 -70 400 -8 47 -17 101 -20 120 -9 54 -16 93 -21 116 -3 12 -7
39 -10 60 -3 21 -10 59 -15 84 -5 25 -12 65 -16 90 -3 25 -8 54 -10 65 -2 11
-16 87 -30 170 -14 82 -27 152 -29 155 -2 3 -7 33 -10 65 -4 33 -9 63 -12 67
-2 4 -6 20 -8 35 -8 57 -16 109 -25 158 -5 28 -12 64 -15 80 -48 277 -50 287
-85 359 -14 28 -13 29 45 83 106 97 138 126 235 213 52 47 97 87 100 90 16 16
271 247 320 290 174 153 260 248 260 290 0 12 -161 176 -199 202 -19 13 -28
14 -50 5 -46 -20 -89 -52 -183 -138 -86 -78 -177 -160 -204 -184 -6 -5 -51
-46 -99 -90 -48 -44 -97 -88 -109 -98 -12 -10 -61 -55 -110 -100 -120 -110
-123 -112 -207 -187 -40 -36 -89 -82 -110 -103 -36 -35 -42 -37 -99 -37 l-60
0 -1 68 c0 37 -3 115 -5 174 l-4 106 52 41 c29 22 58 44 63 49 6 4 28 21 50
37 22 16 45 34 50 39 6 6 55 45 110 86 55 40 105 78 110 82 9 7 41 32 115 89
14 11 58 44 98 75 40 31 72 58 70 59 -3 3 -68 13 -193 30 -26 4 -68 10 -235
34 -74 11 -157 22 -185 25 -27 4 -61 8 -75 11 -13 3 -42 7 -65 10 -117 16
-109 11 -131 73 -44 123 -259 662 -264 661 -3 0 -61 -81 -130 -180 -266 -381
-361 -514 -378 -526 -9 -6 -44 -14 -77 -17 -33 -3 -83 -10 -112 -14 -42 -7
-54 -6 -65 7 -35 42 -119 174 -120 189 -1 14 59 152 172 397 10 22 76 166 145
320 70 154 138 305 152 335 14 30 38 83 54 118 l29 64 -28 -6 c-15 -4 -36 -8
-47 -10 -11 -3 -60 -14 -110 -26 -49 -12 -97 -23 -105 -25 -8 -2 -44 -11 -80
-20 -36 -9 -76 -18 -90 -21 -14 -3 -79 -19 -145 -35 -66 -16 -129 -31 -140
-33 -11 -3 -112 -27 -225 -54 -200 -49 -267 -64 -272 -63 -2 0 -31 -8 -65 -18
l-61 -19 -77 64 c-42 35 -97 81 -122 101 -25 21 -62 52 -82 69 -29 25 -132
111 -266 222 -11 10 -63 53 -115 97 -52 43 -124 104 -160 133 -89 75 -106 89
-177 150 -66 56 -69 58 -70 40z m1757 -2843 c41 -4 76 -8 78 -10 3 -3 -38
-117 -45 -124 -5 -6 -143 131 -143 142 0 5 8 6 18 3 9 -2 51 -8 92 -11z m773
-232 l32 -17 -40 -7 c-22 -4 -60 -10 -85 -13 -25 -3 -61 -8 -80 -11 -31 -5
-29 -3 20 20 30 14 64 29 75 34 29 14 42 13 78 -6z m-802 -93 c-21 -60 -18
-57 -61 -64 -19 -3 -58 -10 -87 -15 -29 -6 -74 -13 -100 -16 -26 -4 -55 -8
-63 -10 -8 -3 -105 -18 -215 -34 -110 -17 -209 -32 -220 -35 -11 -2 -40 -7
-65 -10 -25 -3 -81 -12 -125 -20 -44 -8 -81 -13 -82 -12 -2 2 34 46 72 87 13
14 30 26 37 26 12 0 36 4 108 17 14 3 117 21 230 40 113 20 216 38 230 40 14
3 95 17 180 31 85 15 157 28 159 31 2 2 7 1 12 -1 4 -3 0 -28 -10 -55z m-2383
-145 c53 -3 120 -8 147 -10 28 -2 91 -7 140 -10 50 -3 94 -10 98 -14 4 -4 21
-46 37 -92 30 -87 28 -99 -15 -99 -11 0 -43 -9 -72 -20 -51 -19 -52 -19 -58 0
-11 33 -75 75 -252 164 -95 48 -173 88 -173 90 0 2 11 2 25 0 14 -1 69 -5 123
-9z"/>
</g>
</svg>
